HIERARCHY
ROOT root
{
	OFFSET	0	13.1	24.9
	CHANNELS 6  Xposition Yposition Zposition Xrotation Yrotation Zrotation
	JOINT spine_1
	{
		OFFSET	0	9.99999	0
		CHANNELS 3  Xrotation Yrotation Zrotation
		JOINT spine_2
		{
			OFFSET	0	112	-10
			CHANNELS 3  Xrotation Yrotation Zrotation
			JOINT spine_3
			{
				OFFSET	0	206.5	19.3
				CHANNELS 3  Xrotation Yrotation Zrotation
				JOINT spine_4
				{
					OFFSET	0	110.4	14.6
					CHANNELS 3  Xrotation Yrotation Zrotation
					JOINT neck_1
					{
						OFFSET	0	71.8	-50.3
						CHANNELS 3  Xrotation Yrotation Zrotation
						JOINT neck_2
						{
							OFFSET	0	86.2	-25.8
							CHANNELS 3  Xrotation Yrotation Zrotation
							JOINT head_ee
							{
								OFFSET	0	179.8	-8.7
								CHANNELS 3  Xrotation Yrotation Zrotation
								End Site
								{
									OFFSET	1	0	0
								}
							}
						}
					}
					JOINT left_clavicle
					{
						OFFSET	-43.2	22.4	-70.8
						CHANNELS 3  Xrotation Yrotation Zrotation
						JOINT left_shoulder
						{
							OFFSET	-93.9	-5.79999	48.7
							CHANNELS 3  Xrotation Yrotation Zrotation
							JOINT left_elbow
							{
								OFFSET	-291.4	-30.8	15.2
								CHANNELS 3  Xrotation Yrotation Zrotation
								JOINT left_lowarm_twist
								{
									OFFSET	-110.7	-3.89999	13.6
									CHANNELS 3  Xrotation Yrotation Zrotation
									JOINT left_hand
									{
										OFFSET	-110.7	-3.89999	13.6
										CHANNELS 3  Xrotation Yrotation Zrotation
										JOINT left_ee
										{
											OFFSET	-80.8	-5.10001	12.1
											CHANNELS 3  Xrotation Yrotation Zrotation
											End Site
											{
												OFFSET	1	0	0
											}
										}
									}
								}
							}
						}
					}
					JOINT right_clavicle
					{
						OFFSET	43.2	22.4	-70.8
						CHANNELS 3  Xrotation Yrotation Zrotation
						JOINT right_shoulder
						{
							OFFSET	93.9	-5.79999	48.7
							CHANNELS 3  Xrotation Yrotation Zrotation
							JOINT right_elbow
							{
								OFFSET	291.4	-30.8	15.2
								CHANNELS 3  Xrotation Yrotation Zrotation
								JOINT right_lowarm_twist
								{
									OFFSET	110.7	-3.89999	13.6
									CHANNELS 3  Xrotation Yrotation Zrotation
									JOINT right_hand
									{
										OFFSET	110.7	-3.89999	13.6
										CHANNELS 3  Xrotation Yrotation Zrotation
										JOINT right_ee
										{
											OFFSET	80.8	-5.10001	12.1
											CHANNELS 3  Xrotation Yrotation Zrotation
											End Site
											{
												OFFSET	1	0	0
											}
										}
									}
								}
							}
						}
					}
				}
			}
		}
	}
	JOINT left_hip
	{
		OFFSET	-82.8	-127.5	0.300001
		CHANNELS 3  Xrotation Yrotation Zrotation
		JOINT left_knee
		{
			OFFSET	-28.2	-396.7	2.2
			CHANNELS 3  Xrotation Yrotation Zrotation
			JOINT left_ankle
			{
				OFFSET	-11.7	-411.3	35.4
				CHANNELS 3  Xrotation Yrotation Zrotation
				JOINT left_toes
				{
					OFFSET	0	-60	-88.6
					CHANNELS 3  Xrotation Yrotation Zrotation
					JOINT left_foot_ee
					{
						OFFSET	-22.5	-16.5	-42.2
						CHANNELS 3  Xrotation Yrotation Zrotation
						End Site
						{
							OFFSET	1	0	0
						}
					}
				}
			}
		}
	}
	JOINT right_hip
	{
		OFFSET	82.8	-127.5	0.300001
		CHANNELS 3  Xrotation Yrotation Zrotation
		JOINT right_knee
		{
			OFFSET	28.2	-396.7	2.2
			CHANNELS 3  Xrotation Yrotation Zrotation
			JOINT right_ankle
			{
				OFFSET	11.7	-411.3	35.4
				CHANNELS 3  Xrotation Yrotation Zrotation
				JOINT right_toes
				{
					OFFSET	0	-60	-88.6
					CHANNELS 3  Xrotation Yrotation Zrotation
					JOINT right_foot_ee
					{
						OFFSET	22.5	-16.5	-42.2
						CHANNELS 3  Xrotation Yrotation Zrotation
						End Site
						{
							OFFSET	1	0	0
						}
					}
				}
			}
		}
	}
}
MOTION
Frames: 14
Frame Time: 0.02
1372.05 701.618 -1475.22 -3.116555885 21.6354898053 6.36829490553 -1.22419 -0.597481 -3.39738 -1.21785 -0.380217 -3.42846 -1.18944 0.420288 -3.42379 -1.20578 -0.125377 -3.44718 1.05801 15.9004 7.86105 1.50249 21.6659 9.93206 -0.0 0.0 -0.0 6.34632 13.6374 12.0925 4.60508 -40.7285 62.694 3.22679 -57.9569 1.78738 20.9426 0.25651 -2.64807 1.34645 -8.31697 5.56839 -0.0 0.0 -0.0 -0.60012 10.9965 2.55575 -16.2687 22.6495 -70.9951 0.178116 5.04247 -0.00784291 7.47316 -0.202732 0.932408 0.881719 -7.93713 -9.05251 0.0 0.0 0.0 -14.331 8.19823 4.05431 -8.50045 0.255545 1.27834 41.3289 13.6053 -5.02968 -15.911 0.0 0.0 -0.0 0.0 -0.0 32.3213 12.8162 -8.36729 0.594855 0.0249519 0.0878736 -17.8813 11.3523 -2.85948 21.4295 -0.0 -0.0 0.0 0.0 0.0 
1354.39857111 700.071 -1515.96490223 -4.02540604121 24.1505822627 7.2664863501 -1.13928 -0.493954 -3.61859 -1.13204 -0.262849 -3.64264 -1.1094 0.579132 -3.60595 -1.12755 0.00276625 -3.6521 2.7809 15.964 7.01466 3.27128 21.9851 8.85154 -0.0 0.0 -0.0 5.94614 10.8196 11.4914 1.47284 -40.8574 62.7932 2.94481 -55.558 1.55149 20.063 0.265325 -2.53606 1.6425 -10.1417 6.79162 -0.0 0.0 -0.0 -0.0543914 13.7057 1.73291 -17.5304 22.4494 -71.6456 0.171518 4.8566 -0.00727362 8.14643 -0.214989 1.01754 1.32263 -5.59754 -11.0761 0.0 0.0 0.0 -14.9135 6.75124 2.39809 -9.83214 0.27828 1.48141 41.2263 11.4977 -4.99598 -17.3653 0.0 0.0 -0.0 0.0 -0.0 31.9534 10.4918 -8.58954 -1.99151 -0.0768612 -0.295948 -15.9081 19.6511 -2.71249 22.5592 -0.0 -0.0 0.0 0.0 0.0 
1354.74905956 700.071 -1516.11495641 -4.01012767798 23.6598407502 7.22878326581 -1.13928 -0.493954 -3.61859 -1.13204 -0.262849 -3.64264 -1.1094 0.579132 -3.60595 -1.12755 0.00276625 -3.6521 2.7809 15.964 7.01466 3.27128 21.9851 8.85154 -0.0 0.0 -0.0 5.94614 10.8196 11.4914 1.47284 -40.8574 62.7932 2.94481 -55.558 1.55149 20.063 0.265325 -2.53606 1.6425 -10.1417 6.79162 -0.0 0.0 -0.0 -0.0543914 13.7057 1.73291 -17.5304 22.4494 -71.6456 0.171518 4.8566 -0.00727362 8.14643 -0.214989 1.01754 1.32263 -5.59754 -11.0761 0.0 0.0 0.0 -14.9135 6.75124 2.39809 -9.83214 0.27828 1.48141 41.2263 11.4977 -4.99598 -17.3653 0.0 0.0 -0.0 0.0 -0.0 31.9534 10.4918 -8.58954 -1.99151 -0.0768612 -0.295948 -15.9081 19.6511 -2.71249 22.5592 -0.0 -0.0 0.0 0.0 0.0 
1336.06616934 700.701 -1547.90584478 -2.30658033648 23.9220588258 6.44082853922 -1.19424 -0.587725 -3.37384 -1.18799 -0.371975 -3.40435 -1.16037 0.421029 -3.39864 -1.17647 -0.120681 -3.42246 4.6347 16.608 8.171 5.17735 21.5283 10.0526 -0.0 0.0 -0.0 6.09162 12.3226 11.7052 -0.167404 -39.6148 63.4564 2.46116 -50.6329 1.16439 17.7473 0.280298 -2.24068 1.49411 -9.76856 5.94591 -0.0 0.0 -0.0 0.470308 14.2381 0.683632 -18.3121 22.3408 -71.2257 0.181539 5.13885 -0.00814657 6.32788 -0.179586 0.787942 1.37599 -5.73451 -11.4855 0.0 0.0 0.0 -15.7413 5.86281 2.56429 -15.472 0.322079 2.34531 40.9985 12.9163 -4.99223 -13.7281 0.0 0.0 -0.0 0.0 -0.0 31.4245 12.2387 -9.90307 -10.1118 -0.282454 -1.52412 -10.0601 11.2352 -1.59549 23.5549 -0.0 -0.0 0.0 0.0 0.0 
1306.58115623 707.76 -1597.36662705 -1.95283043007 26.0262129139 5.51197835662 -1.46357 -0.22381 -3.15884 -1.45802 -0.0224542 -3.16667 -1.45225 0.722669 -3.08327 -1.46544 0.226909 -3.15862 10.3646 15.6271 6.16719 10.9059 19.9082 7.49304 -0.0 0.0 -0.0 5.62489 10.1344 10.9389 -3.16762 -37.4937 64.7941 2.16089 -46.9426 0.938388 14.6791 0.281735 -1.84885 1.43538 -11.3491 4.86201 -0.0 0.0 -0.0 1.96796 15.7805 -2.32961 -18.7145 22.2176 -70.5252 0.181221 5.12992 -0.00811822 4.97661 -0.148568 0.618121 0.149918 -9.11174 -4.74953 0.0 0.0 0.0 -13.2114 4.88674 1.11383 -22.9553 0.248848 3.49037 39.8887 11.9551 -4.88403 -10.4817 0.0 0.0 -0.0 0.0 -0.0 28.2971 7.3997 -8.1674 -14.2536 -0.319823 -2.15838 -2.88775 9.40043 -0.447018 22.1086 -0.0 -0.0 0.0 0.0 0.0 
1308.09005487 707.76 -1598.1634562 -1.94130816341 25.3211454713 5.48538359895 -1.46357 -0.22381 -3.15884 -1.45802 -0.0224542 -3.16667 -1.45225 0.722669 -3.08327 -1.46544 0.226909 -3.15862 10.3646 15.6271 6.16719 10.9059 19.9082 7.49304 -0.0 0.0 -0.0 5.62489 10.1344 10.9389 -3.16762 -37.4937 64.7941 2.16089 -46.9426 0.938388 14.6791 0.281735 -1.84885 1.43538 -11.3491 4.86201 -0.0 0.0 -0.0 1.96796 15.7805 -2.32961 -18.7145 22.2176 -70.5252 0.181221 5.12992 -0.00811822 4.97661 -0.148568 0.618121 0.149918 -9.11174 -4.74953 0.0 0.0 0.0 -13.2114 4.88674 1.11383 -22.9553 0.248848 3.49037 39.8887 11.9551 -4.88403 -10.4817 0.0 0.0 -0.0 0.0 -0.0 28.2971 7.3997 -8.1674 -14.2536 -0.319823 -2.15838 -2.88775 9.40043 -0.447018 22.1086 -0.0 -0.0 0.0 0.0 0.0 
1286.39842718 716.826 -1637.64587681 -2.2955729689 26.452356629 5.59076148392 -1.55376 -0.0427203 -3.03458 -1.54865 0.150375 -3.03116 -1.55272 0.864058 -2.90939 -1.56431 0.393951 -3.00923 9.67344 16.6524 7.94404 10.2207 20.1624 9.666 -0.0 0.0 -0.0 5.52053 10.1886 10.7549 -5.74189 -37.9439 65.2208 1.73347 -40.6495 0.642123 13.1354 0.274524 -1.65182 1.38664 -11.9485 4.27111 -0.0 0.0 -0.0 3.00674 17.5148 -4.37658 -15.9388 22.8372 -70.0345 0.228869 6.46844 -0.0129329 3.98246 -0.123194 0.493663 0.181253 -10.4146 -5.47299 0.0 0.0 0.0 -11.5182 3.65746 0.861021 -26.7338 0.155248 4.06257 36.8697 11.0629 -4.59905 -9.59131 0.0 0.0 -0.0 0.0 -0.0 26.0222 6.1166 -8.4034 -15.3629 -0.322039 -2.32857 0.21007 9.56312 0.0323023 20.7981 -0.0 -0.0 0.0 0.0 0.0 
1264.18092599 720.988 -1660.7461951 -2.04863885315 27.7054234425 5.55683756946 -1.64694 -0.296251 -2.98033 -1.642 -0.106091 -2.99312 -1.63201 0.609609 -2.93236 -1.64398 0.139064 -2.99177 11.4583 16.9955 7.66674 12.0312 20.4008 9.33267 -0.0 0.0 -0.0 5.8519 15.7367 11.1917 -6.56675 -37.0139 66.7605 1.49062 -36.4402 0.490695 10.8207 0.253772 -1.3569 1.32129 -11.6808 3.94628 -0.0 0.0 -0.0 2.73896 16.4195 -3.90811 -15.4021 24.2704 -69.0273 0.352118 9.89468 -0.0304803 1.81176 -0.0603027 0.223534 -0.22717 -13.0676 -3.94357 0.0 0.0 0.0 -7.6805 2.3402 0.409405 -34.6563 -0.162254 5.23593 40.0012 11.0448 -4.88517 -9.33085 0.0 0.0 -0.0 0.0 -0.0 23.0567 3.34801 -7.50581 -16.2351 -0.321468 -2.46238 7.17866 8.58876 1.07496 20.1789 -0.0 -0.0 0.0 0.0 0.0 
1248.09553901 725.995 -1681.16099583 -1.12568936685 27.7992956819 3.95392040938 -1.55458 -0.505002 -2.59487 -1.5509 -0.338918 -2.62173 -1.53167 0.290095 -2.62757 -1.54128 -0.128372 -2.64041 12.6772 17.1792 7.66653 13.2474 20.2937 9.35804 -0.0 0.0 -0.0 5.68168 16.4346 10.8921 -8.20073 -37.6546 66.9324 1.14617 -29.586 0.30269 8.88443 0.227274 -1.11101 1.42267 -12.544 4.25407 -0.0 0.0 -0.0 2.98673 16.9285 -4.38869 -14.2054 25.1965 -68.4073 0.438172 12.2467 -0.0470079 0.790646 -0.0271862 0.0973181 -0.178443 -14.2709 -4.73655 0.0 0.0 0.0 -4.37081 2.47528 0.796489 -40.6871 -0.511056 6.09419 40.3824 10.9225 -4.9175 -8.90021 0.0 0.0 -0.0 0.0 -0.0 20.2732 1.62941 -5.55637 -17.4435 -0.317311 -2.64773 9.95374 9.90938 1.48609 19.195 -0.0 -0.0 0.0 0.0 0.0 
1242.73346472 725.891 -1702.74454348 -0.395495719678 24.7690861468 3.95477919279 -1.52583 -0.278939 -2.55302 -1.52221 -0.115973 -2.56558 -1.51382 0.492881 -2.52049 -1.52267 0.0887672 -2.56667 12.1027 17.0872 8.66987 12.6141 19.3758 10.6243 -0.0 0.0 -0.0 5.37243 17.9227 10.354 -10.2306 -37.857 66.729 0.916001 -24.4063 0.198103 7.32748 0.199949 -0.914008 1.38581 -10.382 4.94644 -0.0 0.0 -0.0 3.40123 17.2765 -5.24203 -11.58 25.2204 -68.512 0.517028 14.366 -0.0651604 -0.160272 0.00567476 -0.0196818 -0.276765 -13.9831 -4.00516 0.0 0.0 0.0 -2.34767 2.88809 0.049011 -44.3951 -0.769787 6.6023 40.2993 11.9583 -4.9203 -8.65287 0.0 0.0 -0.0 0.0 -0.0 18.2826 -0.706319 -6.46312 -18.0105 -0.314013 -2.73467 14.9729 10.2668 2.19387 18.3143 -0.0 -0.0 0.0 0.0 0.0 
1214.28036595 728.48 -1740.76808543 1.18613724732 26.1880117893 2.7426846327 -2.02361 -0.199522 -2.47282 -2.02021 -0.0418151 -2.4805 -2.0151 0.566068 -2.41544 -2.0232 0.177613 -2.47449 9.58233 17.4274 7.93758 10.2059 21.4908 9.63836 -0.0 0.0 -0.0 4.82604 18.2451 9.49705 -13.3053 -36.8902 66.898 0.731652 -19.9225 0.128502 7.58221 0.204785 -0.946188 1.2812 -8.6547 4.98148 -0.0 0.0 -0.0 4.85454 17.6009 -8.32769 -9.81647 27.5197 -64.8825 0.666809 18.2794 -0.10728 -1.73191 0.0642333 -0.211828 -0.199414 -12.5297 -3.89958 0.0 0.0 0.0 5.76828 2.50292 -2.81606 -57.1094 -1.89607 8.19934 40.8119 10.4253 -4.95046 -7.27502 0.0 0.0 -0.0 0.0 -0.0 14.8037 -3.2469 -5.62129 -21.6076 -0.273072 -3.28499 20.2607 12.6392 2.93476 16.2294 -0.0 -0.0 0.0 0.0 0.0 
1225.03016442 728.48 -1746.86721801 1.1641656328 23.8957117466 2.79458219619 -2.02361 -0.199522 -2.47282 -2.02021 -0.0418151 -2.4805 -2.0151 0.566068 -2.41544 -2.0232 0.177613 -2.47449 9.58233 17.4274 7.93758 10.2059 21.4908 9.63836 -0.0 0.0 -0.0 4.82604 18.2451 9.49705 -13.3053 -36.8902 66.898 0.731652 -19.9225 0.128502 7.58221 0.204785 -0.946188 1.2812 -8.6547 4.98148 -0.0 0.0 -0.0 4.85454 17.6009 -8.32769 -9.81647 27.5197 -64.8825 0.666809 18.2794 -0.10728 -1.73191 0.0642333 -0.211828 -0.199414 -12.5297 -3.89958 0.0 0.0 0.0 5.76828 2.50292 -2.81606 -57.1094 -1.89607 8.19934 40.8119 10.4253 -4.95046 -7.27502 0.0 0.0 -0.0 0.0 -0.0 14.8037 -3.2469 -5.62129 -21.6076 -0.273072 -3.28499 20.2607 12.6392 2.93476 16.2294 -0.0 -0.0 0.0 0.0 0.0 
1203.0441023 732.411 -1770.73767542 1.54746996749 22.230019733 3.53962951377 -1.72417 -0.141261 -2.19174 -1.7215 -0.00154258 -2.19629 -1.71911 0.52456 -2.13276 -1.72541 0.181233 -2.1888 5.72641 17.4301 8.48582 6.33752 22.3101 10.378 -0.0 0.0 -0.0 3.37534 17.6084 7.25175 -15.7148 -35.986 68.7739 0.556063 -15.4008 0.0751871 8.72568 0.224733 -1.09089 1.06047 -4.14295 5.39365 -0.0 0.0 -0.0 6.51324 19.1707 -11.7843 -5.23986 28.8197 -62.2866 0.885783 23.6912 -0.185789 -2.89693 0.111036 -0.353201 -0.130109 -11.534 -3.93373 0.0 0.0 0.0 13.306 1.11986 -5.64149 -66.5718 -2.94982 9.20767 41.1563 14.2991 -5.02444 -6.22347 0.0 0.0 -0.0 0.0 -0.0 13.0385 -4.9156 -7.0836 -23.4483 -0.23878 -3.56536 20.2618 12.2941 2.92864 13.3714 -0.0 -0.0 0.0 0.0 0.0 
1213.86457301 732.411 -1776.66827189 1.52587430724 20.1539329914 3.59935972814 -1.72417 -0.141261 -2.19174 -1.7215 -0.00154258 -2.19629 -1.71911 0.52456 -2.13276 -1.72541 0.181233 -2.1888 5.72641 17.4301 8.48582 6.33752 22.3101 10.378 -0.0 0.0 -0.0 3.37534 17.6084 7.25175 -15.7148 -35.986 68.7739 0.556063 -15.4008 0.0751871 8.72568 0.224733 -1.09089 1.06047 -4.14295 5.39365 -0.0 0.0 -0.0 6.51324 19.1707 -11.7843 -5.23986 28.8197 -62.2866 0.885783 23.6912 -0.185789 -2.89693 0.111036 -0.353201 -0.130109 -11.534 -3.93373 0.0 0.0 0.0 13.306 1.11986 -5.64149 -66.5718 -2.94982 9.20767 41.1563 14.2991 -5.02444 -6.22347 0.0 0.0 -0.0 0.0 -0.0 13.0385 -4.9156 -7.0836 -23.4483 -0.23878 -3.56536 20.2618 12.2941 2.92864 13.3714 -0.0 -0.0 0.0 0.0 0.0 
